<?xml version="1.0" encoding="UTF-8" standalone="no"?><!DOCTYPE svg PUBLIC "-//W3C//DTD SVG 1.1//EN" "http://www.w3.org/Graphics/SVG/1.1/DTD/svg11.dtd"><svg width="100%" height="100%" viewBox="0 0 375 375" version="1.1" xmlns="http://www.w3.org/2000/svg" xmlns:xlink="http://www.w3.org/1999/xlink" xml:space="preserve" xmlns:serif="http://www.serif.com/" style="fill-rule:evenodd;clip-rule:evenodd;stroke-linejoin:round;stroke-miterlimit:2;"><path d="M292.65,189.225c0,58.125 -47.1,105.225 -105.225,105.225c-58.125,0 -105.225,-47.1 -105.225,-105.225c0,-58.125 47.1,-105.225 105.225,-105.225c58.125,0 105.225,47.1 105.225,105.225" style="fill:#e50012;fill-rule:nonzero;"/><path d="M3.525,187.5c0,-101.4 82.5,-183.975 183.9,-183.975c101.475,0.075 183.975,82.575 183.975,183.975c0,101.4 -82.5,183.9 -183.9,183.9c-101.4,0 -183.975,-82.5 -183.975,-183.9m-3.525,0c0,103.35 84.075,187.5 187.5,187.5c103.425,0 187.5,-84.075 187.5,-187.5c0,-103.425 -84.075,-187.5 -187.5,-187.5c-103.425,0 -187.5,84.15 -187.5,187.5" style="fill:#e50012;fill-rule:nonzero;"/><path d="M194.775,39.75l16.2,0l-13.2,10.05l6.825,26.175l-16.05,-19.575l-14.55,9.45l4.575,-16.05l-17.7,-10.05l21.525,0l6.15,-24.375l6.225,24.375Z" style="fill:#e50012;fill-rule:nonzero;"/><path d="M268.05,287.025c-22.05,17.85 -50.1,28.575 -80.625,28.575c-30.975,0 -59.475,-11.1 -81.6,-29.475c-15.45,1.5 -34.875,17.925 -34.875,17.925c29.85,29.85 71.1,48.3 116.55,48.3c45,0 85.875,-18.15 115.65,-47.475c0,0.15 -19.575,-16.5 -35.1,-17.85" style="fill:#b2a8a2;fill-rule:nonzero;"/><path d="M140.025,43.5c-5.55,1.8 -7.275,6.6 -5.4,13.125l17.55,-5.7c-2.025,-5.925 -5.625,-9.525 -12.15,-7.425m-4.05,17.625c4.35,9.825 11.775,7.8 16.575,6.225c3,-0.975 5.625,-2.25 8.7,-3.825l1.425,4.5c-3.6,2.25 -6.975,3.6 -10.575,4.725c-11.625,3.75 -20.175,-0.825 -23.775,-12.075c-3.75,-11.625 1.8,-18.825 10.275,-21.6c11.325,-3.675 18.225,1.8 21.6,12.45l0.525,1.65l-24.75,7.95Z" style="fill:#9b867d;fill-rule:nonzero;"/><path d="M226.5,74.25c-10.725,-3.15 -16.5,-11.325 -12.9,-23.4c3.15,-10.65 12.825,-14.325 22.8,-11.4c3.45,1.05 5.475,1.8 8.475,3.3l-1.425,4.95c-2.55,-1.2 -4.2,-2.025 -6.3,-2.625c-7.5,-2.325 -14.25,-0.675 -16.8,7.8c-2.55,8.625 1.275,14.4 9.525,16.8c1.875,0.45 3.9,0.975 6.975,1.275l-1.425,4.875c-3.525,-0.15 -6.225,-0.75 -8.925,-1.575" style="fill:#9b867d;fill-rule:nonzero;"/><path d="M270,61.125c-4.95,-3.225 -9.75,-1.575 -13.575,4.05l15.45,10.125c3.3,-5.325 3.975,-10.425 -1.875,-14.175m-16.2,7.95c-4.875,9.6 1.35,14.1 5.55,16.8c2.625,1.725 5.325,3 8.475,4.35l-2.55,3.9c-4.05,-1.425 -7.125,-3.15 -10.35,-5.25c-10.2,-6.675 -12,-16.2 -5.55,-26.1c6.675,-10.2 15.825,-10.425 23.25,-5.55c9.975,6.525 10.05,15.3 3.9,24.675l-0.975,1.425l-21.75,-14.25Z" style="fill:#9b867d;fill-rule:nonzero;"/><path d="M307.859,67.898l-35.749,34.234l4.564,4.767l35.749,-34.235l-4.564,-4.766Z" style="fill:#9b867d;"/><path d="M283.275,114.75l40.125,-29.025l3.825,5.4l-40.125,28.95l-3.825,-5.325Z" style="fill:#9b867d;fill-rule:nonzero;"/><path d="M327.15,130.05c-2.25,-5.4 -7.2,-6.75 -13.5,-4.275l7.125,17.025c5.775,-2.55 9.075,-6.375 6.375,-12.75m-17.85,-2.55c-9.45,5.175 -6.75,12.375 -4.8,17.025c1.2,2.925 2.7,5.475 4.575,8.325l-4.35,1.8c-2.55,-3.45 -4.125,-6.675 -5.625,-10.2c-4.725,-11.25 -0.825,-20.175 10.05,-24.75c11.25,-4.725 18.9,0.225 22.35,8.475c4.575,11.025 -0.3,18.3 -10.575,22.575l-1.575,0.675l-10.05,-23.925Z" style="fill:#9b867d;fill-rule:nonzero;"/><path d="M308.4,188.85l22.05,-1.5c3.675,-0.225 7.725,-0.6 7.275,-6.525c-0.225,-3.375 -2.475,-8.175 -3.9,-11.025l-26.625,1.8l-0.45,-6.525l34.65,-2.325l0.375,6.075l-3.15,0.225c3.525,6.675 4.425,8.925 4.8,13.725c0.3,4.95 -2.175,10.575 -9.825,11.1l-24.75,1.65l-0.45,-6.675Z" style="fill:#9b867d;fill-rule:nonzero;"/><path d="M302.775,222.075c2.625,-10.95 10.425,-17.025 22.65,-14.175c10.8,2.55 15,12 12.6,22.125c-0.825,3.525 -1.5,5.55 -2.85,8.625l-5.025,-1.2c1.125,-2.625 1.8,-4.35 2.25,-6.45c1.875,-7.65 -0.075,-14.25 -8.775,-16.275c-8.7,-2.1 -14.325,2.1 -16.275,10.425c-0.375,1.875 -0.75,3.975 -0.9,7.05l-4.95,-1.2c0.15,-3.375 0.6,-6.15 1.275,-8.925" style="fill:#9b867d;fill-rule:nonzero;"/><path d="M318.3,264.825c2.925,-5.1 0.975,-9.75 -4.8,-13.35l-9.3,15.975c5.55,3.075 10.575,3.375 14.1,-2.625m-8.85,-15.75c-9.825,-4.425 -13.95,2.1 -16.5,6.45c-1.575,2.775 -2.7,5.475 -3.9,8.625l-4.05,-2.325c1.2,-4.125 2.775,-7.275 4.725,-10.65c6.15,-10.575 15.525,-12.9 25.725,-6.975c10.575,6.15 11.25,15.225 6.825,22.95c-6,10.35 -14.7,10.8 -24.375,5.25l-1.5,-0.9l13.05,-22.425Z" style="fill:#9b867d;fill-rule:nonzero;"/><path d="M101.775,316.2c-3.6,-2.475 -4.65,-6.375 -2.175,-9.975c2.475,-3.675 6.3,-4.35 10.05,-1.8c1.05,0.75 2.25,1.575 3.15,2.55l-1.425,2.1c0,0 -1.125,-1.125 -2.25,-1.875c-2.325,-1.575 -4.275,-1.65 -6.15,1.125c-1.875,2.7 -1.125,4.5 1.2,6.15c1.125,0.75 2.7,1.5 2.7,1.5l-1.425,2.025c-1.35,-0.375 -2.55,-0.975 -3.675,-1.8" style="fill:#fff;fill-rule:nonzero;"/><path d="M113.7,323.325l6.225,-12.375l9.375,4.725l-1.125,2.25l-6,-3l-1.35,2.7l4.275,2.1l-1.125,2.175l-4.275,-2.1l-1.425,2.925l6.225,3.15l-1.125,2.25l-9.675,-4.8Z" style="fill:#fff;fill-rule:nonzero;"/><path d="M141.75,323.1l-1.875,-0.6l-1.35,3.975l1.875,0.6c1.425,0.45 2.325,0.225 2.85,-1.275c0.525,-1.575 0,-2.25 -1.5,-2.7m1.275,6.675l1.725,6.225l-4.125,-1.35l-1.2,-5.25l-1.65,-0.525l-1.5,4.425l-3.6,-1.2l4.35,-13.125l6.45,2.175c2.775,0.9 4.575,2.625 3.525,5.775c-1.05,3.075 -3.975,2.7 -3.975,2.7l0,0.15Z" style="fill:#fff;fill-rule:nonzero;"/><path d="M160.125,339.375l-3.75,-0.675l2.1,-11.025l-4.125,-0.825l0.45,-2.55l12,2.25l-0.45,2.55l-4.125,-0.75l-2.1,11.025Z" style="fill:#fff;fill-rule:nonzero;"/><path d="M173.925,341.1l3.825,0.3l0.975,-13.8l-3.825,-0.225l-0.975,13.725Z" style="fill:#fff;fill-rule:nonzero;"/><path d="M192.225,330.3l0.15,3.675l5.025,-0.225l0.075,2.625l-4.95,0.225l0.225,4.95l-3.825,0.15l-0.6,-13.8l10.725,-0.525l0.075,2.625l-6.9,0.3Z" style="fill:#fff;fill-rule:nonzero;"/><path d="M207.525,326.25l2.25,13.65l3.75,-0.6l-2.25,-13.65l-3.75,0.6Z" style="fill:#fff;fill-rule:nonzero;"/><path d="M224.475,336.975l-3.825,-13.275l10.125,-2.925l0.675,2.4l-6.45,1.875l0.825,2.925l4.575,-1.275l0.675,2.325l-4.575,1.35l0.9,3.15l6.75,-1.95l0.675,2.4l-10.35,3Z" style="fill:#fff;fill-rule:nonzero;"/><path d="M244.125,318.075l-1.05,0.525l3.75,8.1l1.05,-0.45c3,-1.275 3.75,-2.625 2.175,-5.925c-1.5,-3.375 -3,-3.75 -5.925,-2.25m6.075,9.825l-5.775,2.625l-5.775,-12.6l5.775,-2.625c3.6,-1.65 6.975,-1.5 9.225,3.3c1.95,4.275 0.3,7.5 -3.45,9.3" style="fill:#fff;fill-rule:nonzero;"/><path d="M266.025,307.875l-0.675,0.45l1.425,2.175l0.675,-0.45c0.825,-0.525 1.125,-1.2 0.6,-1.95c-0.525,-0.75 -1.2,-0.75 -2.025,-0.225m5.25,4.5c-1.275,-0.525 -2.325,-0.975 -3.225,-1.35l-0.6,0.45l1.65,2.4l-1.35,0.9l-4.35,-6.45l2.325,-1.575c1.5,-0.975 2.775,-1.125 3.75,0.375c0.525,0.825 0.6,1.8 -0.15,2.775c0.825,0.3 3.675,1.35 3.675,1.35l-1.725,1.125Zm-6.45,-6.75c-2.55,1.725 -3.225,5.1 -1.575,7.575c1.65,2.475 5.1,3.15 7.65,1.425c2.55,-1.725 3.3,-5.1 1.575,-7.65c-1.725,-2.475 -5.1,-3.075 -7.65,-1.35m6.975,10.425c-3.3,2.25 -7.8,1.35 -9.975,-1.875c-2.175,-3.3 -1.275,-7.725 2.1,-9.975c3.3,-2.25 7.8,-1.425 10.05,1.875c2.1,3.225 1.125,7.725 -2.175,9.975" style="fill:#fff;fill-rule:nonzero;"/><path d="M192,113.325l13.275,0l-10.725,8.25l5.55,21.375l-13.125,-16.05l-11.925,7.8l3.75,-13.125l-14.4,-8.25l17.55,0l5.025,-19.875l5.025,19.875Z" style="fill:#fff;fill-rule:nonzero;"/><path d="M59.175,138.15c-0.45,1.125 -1.575,4.275 -1.95,5.25c-1.35,3.825 -2.25,7.275 2.25,8.85c4.5,1.575 5.925,-1.725 7.275,-5.475c0.675,-1.95 1.05,-3.525 1.5,-5.4l-9.075,-3.225Zm13.125,11.775c-3,8.175 -6.975,15.075 -16.425,11.775c-10.725,-3.75 -5.925,-16.125 -2.55,-25.65c-5.325,-1.875 -7.725,-2.625 -10.65,5.7c-1.575,4.5 -2.475,9.375 -2.775,11.85l-6.375,-2.25c0.375,-3.075 1.65,-8.775 2.925,-12.375c2.775,-8.1 6.825,-16.725 17.25,-13.125l23.175,8.1c-1.35,6.15 -2.7,11.025 -4.575,15.975" style="fill:#e50012;fill-rule:nonzero;"/><path d="M29.625,251.55l39.3,-6.15l0.375,0.825l-28.8,26.85l6.45,8.25l33.6,-33.675l-5.55,-11.325l-51.825,6.9l6.45,8.325Z" style="fill:#e50012;fill-rule:nonzero;"/><path d="M89.1,83.4c-3,1.95 -7.125,5.25 -9.45,2.85c-2.325,-2.4 0.675,-6.15 2.925,-8.325c2.25,-2.175 4.95,-4.2 6.75,-5.475l-2.775,-5.775c-1.275,0.975 -4.8,3.225 -9.75,8.025c-4.725,4.575 -9.9,12.6 -3.675,19.05c5.85,6.075 13.65,0.75 15.375,-0.3c5.025,-3.075 7.8,-5.55 10.2,-3.15c2.4,2.475 -0.6,6.6 -3.225,9.15c-3.075,3 -6.375,5.025 -9.6,6.975l4.725,4.875c3.075,-1.95 6.9,-4.725 10.5,-8.175c7.575,-7.425 9.375,-15.375 4.05,-20.925c-5.4,-5.325 -12.15,-1.35 -16.05,1.2" style="fill:#e50012;fill-rule:nonzero;"/><path d="M57.225,215.1c-4.725,0.675 -5.55,-2.775 -6.075,-6.75c-0.15,-1.05 -0.6,-4.35 -0.75,-5.55l9.525,-1.35c0.525,1.875 0.9,3.45 1.2,5.475c0.6,3.975 0.825,7.5 -3.9,8.175m10.275,-7.875c-0.6,-5.325 -1.725,-10.275 -3.3,-16.275l-24.3,3.525c-10.95,1.575 -10.575,11.175 -9.225,19.575c0.525,3.75 1.95,9.375 3.075,12.225l6.75,-0.9c-0.9,-2.325 -2.325,-7.05 -3,-11.775c-1.275,-8.775 1.2,-9.15 6.75,-9.975c1.5,10.05 2.925,23.25 14.1,21.6c9.9,-1.425 10.275,-9.375 9.15,-18" style="fill:#e50012;fill-rule:nonzero;"/><path d="M65.4,181.725l-51.825,-4.8l-1.05,-9.9l53.775,5.025l-0.9,9.675Z" style="fill:#e50012;fill-rule:nonzero;"/><path d="M82.125,126.375l-30,-19.8l5.325,-8.1l30,19.8l-5.325,8.1Zm-35.4,-23.325l-6.825,-4.5l3.675,-9.225l8.475,5.625l-5.325,8.1Z" style="fill:#e50012;fill-rule:nonzero;"/><path d="M274.5,248.25c-9.525,-8.55 -28.725,-25.8 -28.725,-25.8l-1.2,0.375c-3,1.05 -7.65,0.375 -9,-0.075c-0.3,-0.375 -1.65,-2.475 -1.65,-2.475c-2.475,-3.825 -4.5,-6.825 -6.225,-8.1l-2.1,-0.9c-1.425,-0.525 -4.05,-1.425 -4.65,-2.55c-0.525,-0.75 -0.9,-2.025 -0.9,-3.675c0,-1.575 0.375,-3.375 1.425,-5.325l0.525,-1.05l-0.6,-0.975c-0.975,-1.725 -3.975,-7.875 -6.675,-13.275l-4.725,-9.525l-0.3,-0.225c-5.025,-4.5 -9.825,-8.175 -10.95,-9c-5.025,-7.275 -11.1,-9.15 -16.95,-10.95l-4.95,-1.575l-0.9,1.35l-8.7,13.5l0,0.6c0,0 -0.225,9.075 -0.3,11.85c-1.125,0.075 -3.15,0.3 -3.15,0.3c0,0 -3.525,4.95 -4.35,6.075c-0.9,0.15 -3.825,0.6 -3.825,0.6l0,1.65c-0.375,5.775 -1.65,10.65 -2.775,14.925c-0.825,3.225 -1.65,6.375 -1.95,9.375c-7.275,5.85 -41.55,34.575 -46.95,39.45c-0.075,0 -0.075,0 -0.075,0.075c0.825,1.125 1.725,2.25 2.625,3.3c3.975,-3.525 41.1,-34.8 47.7,-40.05l0.75,-0.6l0.075,-0.9c0.225,-3 0.975,-6.075 1.95,-9.6c1.05,-4.05 2.25,-8.625 2.7,-14.025c0.675,-0.075 2.175,-0.375 2.175,-0.375l0.6,-0.75c0,0 2.925,-4.05 3.75,-5.25c1.125,-0.075 4.95,-0.45 4.95,-0.45c0,0 0.375,-13.875 0.375,-14.925c0.525,-0.825 5.85,-9.15 7.2,-11.175c0.975,0.3 2.025,0.6 2.025,0.6c5.775,1.725 10.725,3.225 14.925,9.6l0.225,0.3l0.3,0.225c0.075,0.075 5.325,3.9 10.575,8.625c0.3,0.6 4.35,8.7 4.35,8.7c2.55,5.1 5.025,10.275 6.3,12.6c-0.975,2.175 -1.5,4.275 -1.5,6.225c0,2.4 0.6,4.5 1.575,5.85c1.35,2.325 4.65,3.525 6.825,4.275l1.125,0.45c1.125,0.825 3.6,4.575 5.025,6.825c1.8,2.85 2.25,3.525 3.075,3.9c1.2,0.6 6.825,1.575 11.25,0.6c1.125,0.975 18,16.2 27.375,24.6c0.75,-0.9 1.575,-2.025 2.325,-3.225" style="fill:#fff;fill-rule:nonzero;"/><path d="M273.3,249.975c-0.3,0.45 -0.6,0.9 -0.975,1.35c0.375,-0.45 0.675,-0.9 0.975,-1.35m-39.825,-23.475c-0.75,-0.375 -1.2,-1.05 -3.075,-3.9c-1.5,-2.25 -3.9,-6.075 -5.025,-6.9l-1.125,-0.45c-2.175,-0.75 -5.475,-1.95 -6.825,-4.275c-0.9,-1.35 -1.575,-3.45 -1.575,-5.85l0,-0.3l0,-0.3c0,-1.8 0.45,-3.9 1.35,-5.925c-1.275,-2.4 -3.75,-7.425 -6.15,-12.375c0,0 -4.05,-8.175 -4.35,-8.7c-5.25,-4.725 -10.5,-8.55 -10.575,-8.625l-0.3,-0.225l-0.225,-0.3c-4.275,-6.375 -9.225,-7.875 -14.925,-9.6c0,0 -1.05,-0.3 -2.025,-0.6l0,0.075c2.55,3.525 6.525,8.325 7.95,12c0.675,1.725 0.825,1.575 0.9,5.1c3.675,1.95 8.4,4.2 8.4,4.2c0,0 -3.675,2.925 -6.45,4.125c-3.45,7.125 -6.15,22.875 -4.725,30.3c-4.8,6.375 -7.725,10.65 -11.325,16.575c-0.3,0.45 1.725,3.6 1.2,4.2c-3.525,3.75 -15.825,10.35 -25.95,23.55l-17.85,19.425c16.35,10.5 35.85,16.575 56.7,16.575c29.175,0 55.575,-11.925 74.625,-31.125c0.6,-0.6 1.2,-1.2 1.8,-1.875c0.075,-0.075 0.075,-0.15 0.15,-0.15c2.85,-3.075 5.55,-6.225 8.025,-9.6c-9.375,-8.4 -26.25,-23.625 -27.375,-24.6c-4.425,1.125 -10.125,0.15 -11.25,-0.45" style="fill:#ac0003;fill-rule:nonzero;"/></svg>