<?xml version="1.0" encoding="UTF-8" standalone="no"?><!DOCTYPE svg PUBLIC "-//W3C//DTD SVG 1.1//EN" "http://www.w3.org/Graphics/SVG/1.1/DTD/svg11.dtd"><svg width="100%" height="100%" viewBox="0 0 3204 579" version="1.1" xmlns="http://www.w3.org/2000/svg" xmlns:xlink="http://www.w3.org/1999/xlink" xml:space="preserve" xmlns:serif="http://www.serif.com/" style="fill-rule:evenodd;clip-rule:evenodd;stroke-linejoin:round;stroke-miterlimit:2;"><path d="M656.184,534.556c0,24.422 19.8,44.231 44.219,44.231l490.341,0c24.418,0 44.215,-19.809 44.215,-44.231l0,-490.325c0,-24.431 -19.797,-44.231 -44.215,-44.231l-490.341,0c-24.419,0 -44.219,19.8 -44.219,44.231l0,490.325Z" style="fill:#00a5e4;fill-rule:nonzero;"/><path d="M815.703,139.069l248.869,0c0,0 0.581,15.709 1.594,32.059c1.034,17.291 2.418,35.331 2.34,36.756c-0.212,2.71 -0.825,5.357 -4.228,6.547c-2.684,0.947 -5.656,-0.994 -6.375,-6.362c-0.69,-5.263 -1.89,-10.616 -5.85,-20.169c-1.778,-4.253 -9.672,-13.687 -20.54,-18.584c-12.438,-5.628 -27.476,-5.597 -33.432,-5.597l-103,0c24.769,36.009 59.875,85.75 67.953,99.806c3.397,5.875 3.319,13.412 -7.572,29.05c-10.899,15.637 -70.928,94.109 -70.928,94.109l117.322,0c17.485,0 30.241,-1.959 38.319,-5.831c8.05,-3.853 14.084,-18.059 15.522,-23.275c1.378,-5.184 2.015,-10.297 8.128,-9.965c3.934,0.212 4.759,4.781 4.809,8.153c0,1.487 -2.15,20.209 -4.143,37.468c-2.419,21.338 -4.782,41.922 -4.782,41.922l-242.434,0c-3.381,0 -6.009,0 -6.912,-2.247c-1.322,-3.322 0.215,-6.025 2.709,-9.018c4.122,-4.929 62.825,-79.844 87.537,-116.875c6.138,-9.263 10.232,-16.144 8.982,-20.794c-1.432,-5.341 -8.075,-15.256 -17.191,-29.041c-26.6,-40.372 -76.512,-103.415 -78.819,-106.7c-3.162,-4.381 -4.147,-6.544 -2.765,-9.518c0.828,-1.894 2.793,-1.894 4.887,-1.894Z" style="fill:#fff;fill-rule:nonzero;"/><path d="M1312.38,534.556c0,24.422 19.8,44.231 44.219,44.231l490.347,0c24.418,0 44.212,-19.809 44.212,-44.231l0,-490.325c0,-24.431 -19.794,-44.231 -44.212,-44.231l-490.347,0c-24.419,0 -44.219,19.8 -44.219,44.231l0,490.325Z" style="fill:#e10271;fill-rule:nonzero;"/><path d="M1635.97,184.091l-66.835,0c-3.321,38.74 -6.515,71.693 -9.59,96.431c-3.113,24.737 -6.063,43.566 -8.881,61.381c-3.003,17.797 -6.004,34.031 -9.057,48.656c-2.55,11.46 -6.115,20.322 -11.084,26.738c-4.834,6.456 -11.959,10.931 -21.313,13.447c-7.812,1.903 -15.462,0.359 -23.146,-4.616c-7.544,-5.019 -12.063,-10.997 -13.688,-17.944c-1.144,-5.153 -1.456,-9.528 -0.847,-13.115c0.478,-3.572 1.538,-6.878 3.163,-9.969c1.565,-3.066 3.268,-5.844 5.259,-8.406c1.813,-2.485 3.856,-4.975 5.953,-7.494c0.694,-0.772 4.013,-4.7 10.097,-11.809c6.113,-7.135 10.606,-13.65 13.744,-19.544c3.025,-5.853 9.725,-18.763 13.069,-34.838c3.403,-16.081 10.259,-71.087 10.131,-118.918l-28.119,0c-7.947,0 -15.678,2.603 -22.962,6.4c-7.091,3.731 -13.366,10.028 -16.179,13.621c-2.978,3.71 -10.634,16.104 -12.493,18.482c-1.782,2.406 -5.422,7.912 -8.213,7.068c-3.028,-0.956 -2.362,-4.346 -1.884,-7.068c0.531,-2.707 6.003,-16.557 10.097,-26.972c4.2,-10.525 9.778,-20.672 16.9,-30.491c5.503,-8.353 13.1,-14.244 22.512,-20.231c9.51,-6.119 20.431,-9.153 33.003,-9.153l204.754,0c3.559,0 22.8,1.531 22.8,23.987c0,22.422 -20.438,24.357 -22.8,24.357l-58.147,0c-4.86,46.075 -7.253,93.615 -7.253,140.24c0,8.46 1.406,16.766 4.328,24.825c2.925,8.116 6.487,14.272 10.712,18.45c5.475,5.06 12.009,8.272 19.847,9.747c7.897,1.425 15.813,-1.006 23.866,-7.344c4.443,-3.521 7.653,-7.456 9.781,-11.828c1.994,-4.444 3.269,-8.75 3.875,-12.759c0.531,-4.066 1.437,-9.785 1.603,-11.163c0.159,-1.387 -0.113,-6.434 5.628,-6.872c5.741,-0.443 6.325,4.65 6.86,10.172c0.471,5.541 -2.472,26.113 -7.101,38.897c-4.621,12.856 -10.199,23.131 -16.556,30.903c-6.4,7.866 -12.619,13.469 -18.753,16.913c-6.994,4.237 -15.153,6.79 -24.344,7.681c-9.359,0.863 -17.859,-1.297 -25.515,-6.475c-12.728,-9.312 -22.478,-23.825 -28.963,-43.647c-3.806,-11.578 -5.744,-26.822 -6.165,-45.815c-0.588,-18.982 0.056,-37.516 1.806,-55.625l10.1,-96.3Z" style="fill:#fff;fill-rule:nonzero;"/><path d="M1968.58,534.556c0,24.422 19.8,44.231 44.219,44.231l490.34,0c24.425,0 44.222,-19.809 44.222,-44.231l0,-490.325c0,-24.431 -19.797,-44.231 -44.222,-44.231l-490.34,0c-24.419,0 -44.219,19.8 -44.219,44.231l0,490.325Z" style="fill:#f1b41b;fill-rule:nonzero;"/><path d="M2103.36,263.912c-3.45,-1.59 -3.4,-8.456 0.266,-18.906c4.653,-12.64 9.572,-21.681 16.506,-30.562c6.406,-8.316 20.569,-20.282 30.988,-24.935c10.387,-4.662 21.684,-6.209 35.903,-6.484c17.8,-0.359 44.187,8.903 74.587,21.512c30.51,12.572 58.41,18.51 71.432,18.332c19.212,-0.222 38.559,-4.025 55.243,-15.835c9.941,-6.987 13.953,-11.771 18.656,-21.334c1.438,-2.928 3.325,-3.581 5.344,-2.434c3.219,1.818 3.107,6.35 2.313,12.343c-4.597,31.594 -18.232,48.669 -32.26,58.216c-7.281,4.934 -18.071,11.844 -34.072,13.694c-16.05,1.831 -43.949,-3.169 -52.774,-5.569c-17.297,-4.628 -38.425,-14.625 -51.076,-19.625c-12.509,-5.066 -22.081,-9.834 -28.537,-11.825c-5.047,-1.381 -25.034,-8.678 -43.316,-7.866c-9.99,0.413 -27.265,4.144 -40.203,12.46c-10.815,7.015 -17.809,15.944 -21.925,23.743c-1.915,3.591 -4.493,6.316 -7.075,5.075Z" style="fill:#fff;fill-rule:nonzero;"/><path d="M2103.36,391.787c-3.45,-1.596 -3.4,-8.465 0.266,-18.909c4.653,-12.647 9.572,-21.681 16.506,-30.556c6.406,-8.319 20.569,-20.294 30.988,-24.941c10.387,-4.662 21.684,-6.206 35.903,-6.481c17.8,-0.359 44.187,8.894 74.587,21.503c30.51,12.578 58.41,18.509 71.432,18.338c19.212,-0.222 38.559,-4.025 55.243,-15.835c9.941,-6.987 13.953,-11.769 18.656,-21.325c1.438,-2.931 3.325,-3.584 5.344,-2.444c3.219,1.822 3.107,6.347 2.313,12.341c-4.597,31.597 -18.232,48.672 -32.26,58.228c-7.281,4.928 -18.071,11.828 -34.072,13.681c-16.05,1.838 -43.949,-3.162 -52.774,-5.565c-17.297,-4.625 -38.425,-14.628 -51.076,-19.628c-12.509,-5.053 -22.081,-9.832 -28.537,-11.825c-5.047,-1.381 -25.034,-8.675 -43.316,-7.869c-9.99,0.412 -27.265,4.15 -40.203,12.469c-10.815,7.022 -17.809,15.94 -21.925,23.74c-1.915,3.588 -4.493,6.313 -7.075,5.078Z" style="fill:#fff;fill-rule:nonzero;"/><path d="M2624.78,534.556c0,24.422 19.794,44.231 44.216,44.231l490.35,0c24.406,0 44.219,-19.809 44.219,-44.231l0,-490.325c0,-24.431 -19.813,-44.231 -44.219,-44.231l-490.35,0c-24.422,0 -44.216,19.8 -44.216,44.231l0,490.325Z" style="fill:#00a76d;fill-rule:nonzero;"/><path d="M3059.12,416.687l-61.675,-66.796c2.625,-8.479 3.847,-14.244 5.391,-22.297c2.525,-13.403 3.534,-32.375 1.14,-45.475c-0.718,-4.016 -2.125,-7.878 -5.05,-9.763c-1.672,-1.103 -5.097,-1.469 -7.278,-0.347c-1.884,0.994 -3.64,3.794 -3.934,5.297c-0.747,3.647 -1.485,7.772 -1.969,11.622c-0.209,1.694 -0.372,3.1 -0.531,3.897c-0.791,4.966 -1.803,17.637 -3.613,24.244c-1.219,4.618 -1.968,5.968 -4.112,11.278l-55.516,-60.141c13.522,-10.959 22.747,-19.853 30.691,-29.603c14.587,-17.962 20.087,-30.6 20.247,-46.622c0.134,-10.325 -1.272,-17.662 -5.069,-26.15c-1.678,-3.719 -5.163,-11.412 -13.394,-18.806c-7.553,-6.741 -14.803,-11.291 -22.8,-14.266c-8.297,-3.118 -16.269,-5.7 -29.05,-5.7c-4.544,0 -9.431,0.307 -15.097,0.941c-20.325,2.197 -38.237,11.087 -50.356,24.953c-10.897,12.363 -14.903,29.45 -15.013,40.334c-0.212,14.435 4.941,30.797 13.791,43.829c5.766,8.503 11.478,14.375 20.916,24.103l4.943,5.125c-20.699,15.184 -31.656,24.572 -44.753,38.237c-15.062,15.722 -28.678,32.132 -29.868,60.516c-0.903,20.081 9.115,41.65 26.147,56.278c16.318,14.112 41.034,21.887 69.49,21.887c4.331,0 8.772,-0.193 13.156,-0.534c30.535,-2.603 46.372,-12.691 56.732,-21.209c8.565,-7 15.497,-13.232 25.996,-28.71l35.954,39.882l0.372,0.381l42.09,0c0.241,-0.031 5.928,-0.466 7.497,-5.663c1.406,-4.587 -4.866,-10.178 -5.475,-10.722Zm-160.609,-173.075c-10.104,-10.712 -20.385,-23.003 -24.935,-29.293c-3.4,-4.653 -7.775,-12.866 -9.081,-20.735c-0.372,-2.493 -1.194,-11.181 4.778,-19.025c3.322,-4.262 8.05,-9.034 18.469,-12.237c3.619,-1.1 8.269,-1.713 13.103,-1.713c5.213,0 10.469,0.713 14.719,2.019c8.478,2.603 14.434,7.669 18.603,15.972c5.822,11.466 3.187,24.247 -7.625,36.978c-10.153,11.994 -18.338,20.185 -28.031,28.034Zm-44.457,78.788c7.063,-8.731 17.129,-17.613 32.603,-28.791l68.616,76.363c-5.85,7.694 -11.672,14.528 -22.322,20.615c-10.925,6.225 -21.825,9.104 -37.659,9.894c-1.272,0.066 -2.522,0.094 -3.822,0.094c-13.134,0 -24.294,-3.525 -33.197,-10.447c-10.759,-8.397 -16.078,-19.653 -16.691,-35.356c-0.549,-13.753 3.613,-21.41 12.472,-32.372Z" style="fill:#fff;fill-rule:nonzero;"/><path d="M0,534.553c0,24.413 19.794,44.238 44.194,44.238l490.347,0c24.431,0 44.225,-19.825 44.225,-44.238l0,-490.319c0,-24.44 -19.794,-44.234 -44.225,-44.234l-490.347,0c-24.4,0 -44.194,19.794 -44.194,44.234l0,490.319Z" style="fill:#f36f31;fill-rule:nonzero;"/><path d="M251.006,193.916c0,-31.525 -25.556,-57.079 -57.078,-57.079c-31.525,0 -57.078,25.554 -57.078,57.079c0,31.521 25.553,57.078 57.078,57.078c31.522,0 57.078,-25.557 57.078,-57.078Z" style="fill:#fff;fill-rule:nonzero;"/><path d="M251.006,369.025c0,-31.525 -25.556,-57.078 -57.078,-57.078c-31.525,0 -57.078,25.553 -57.078,57.078c0,31.522 25.553,57.078 57.078,57.078c31.522,0 57.078,-25.556 57.078,-57.078Z" style="fill:#fff;fill-rule:nonzero;"/></svg>